<?xml version="1.0" encoding="UTF-8" standalone="no"?>
<!-- Created with Inkscape (http://www.inkscape.org/) -->

<svg
   xmlns:dc="http://purl.org/dc/elements/1.1/"
   xmlns:cc="http://creativecommons.org/ns#"
   xmlns:rdf="http://www.w3.org/1999/02/22-rdf-syntax-ns#"
   xmlns:svg="http://www.w3.org/2000/svg"
   xmlns="http://www.w3.org/2000/svg"
   xmlns:sodipodi="http://sodipodi.sourceforge.net/DTD/sodipodi-0.dtd"
   xmlns:inkscape="http://www.inkscape.org/namespaces/inkscape"
   width="243.71428"
   height="298"
   id="svg2"
   version="1.1"
   inkscape:version="0.48.4 r9939"
   sodipodi:docname="binary_tree.svg">
  <defs
     id="defs4" />
  <sodipodi:namedview
     id="base"
     pagecolor="#ffffff"
     bordercolor="#666666"
     borderopacity="1.0"
     inkscape:pageopacity="0.0"
     inkscape:pageshadow="2"
     inkscape:zoom="1.4"
     inkscape:cx="-3.5352401"
     inkscape:cy="74.688366"
     inkscape:document-units="px"
     inkscape:current-layer="layer1"
     showgrid="false"
     fit-margin-top="0"
     fit-margin-left="0"
     fit-margin-right="0"
     fit-margin-bottom="0"
     inkscape:window-width="1395"
     inkscape:window-height="940"
     inkscape:window-x="1630"
     inkscape:window-y="24"
     inkscape:window-maximized="0" />
  <metadata
     id="metadata7">
    <rdf:RDF>
      <cc:Work
         rdf:about="">
        <dc:format>image/svg+xml</dc:format>
        <dc:type
           rdf:resource="http://purl.org/dc/dcmitype/StillImage" />
        <dc:title />
      </cc:Work>
    </rdf:RDF>
  </metadata>
  <g
     inkscape:label="Layer 1"
     inkscape:groupmode="layer"
     id="layer1"
     transform="translate(-513.50002,-53.00504)">
    <path
       inkscape:connector-curvature="0"
       id="path3771"
       d="m 583.57143,71.647898 -49.7461,86.162772"
       style="fill:none;stroke:#000000;stroke-width:3;stroke-linecap:butt;stroke-linejoin:miter;stroke-miterlimit:4;stroke-opacity:1;stroke-dasharray:none" />
    <path
       style="fill:none;stroke:#000000;stroke-width:3;stroke-linecap:butt;stroke-linejoin:miter;stroke-miterlimit:4;stroke-opacity:1;stroke-dasharray:none"
       d="m 583.82533,71.647898 49.7461,86.162772"
       id="path3773"
       inkscape:connector-curvature="0" />
    <path
       style="fill:none;stroke:#000000;stroke-width:3;stroke-linecap:butt;stroke-linejoin:miter;stroke-miterlimit:4;stroke-opacity:1;stroke-dasharray:none"
       d="m 632.14285,152.36218 -49.7461,86.16277"
       id="path3777"
       inkscape:connector-curvature="0" />
    <path
       inkscape:connector-curvature="0"
       id="path3779"
       d="m 634.53961,153.79075 49.7461,86.16277"
       style="fill:none;stroke:#000000;stroke-width:3;stroke-linecap:butt;stroke-linejoin:miter;stroke-miterlimit:4;stroke-opacity:1;stroke-dasharray:none" />
    <path
       style="fill:none;stroke:#000000;stroke-width:3;stroke-linecap:butt;stroke-linejoin:miter;stroke-miterlimit:4;stroke-opacity:1;stroke-dasharray:none"
       d="m 684.53961,240.93361 49.7461,86.16277"
       id="path3781"
       inkscape:connector-curvature="0" />
    <path
       sodipodi:type="arc"
       style="fill:#000000;fill-opacity:1;stroke:#000000;stroke-width:3;stroke-miterlimit:4;stroke-dasharray:none"
       id="path2985"
       sodipodi:cx="341.07144"
       sodipodi:cy="79.862183"
       sodipodi:rx="19.642857"
       sodipodi:ry="19.642857"
       d="m 360.7143,79.862183 c 0,10.84845 -8.79441,19.642856 -19.64286,19.642856 -10.84845,0 -19.64285,-8.794406 -19.64285,-19.642856 0,-10.848451 8.7944,-19.642857 19.64285,-19.642857 10.84845,0 19.64286,8.794406 19.64286,19.642857 z"
       transform="translate(242.85714,-5.7142857)" />
    <path
       d="m 360.7143,79.862183 c 0,10.84845 -8.79441,19.642856 -19.64286,19.642856 -10.84845,0 -19.64285,-8.794406 -19.64285,-19.642856 0,-10.848451 8.7944,-19.642857 19.64285,-19.642857 10.84845,0 19.64286,8.794406 19.64286,19.642857 z"
       sodipodi:ry="19.642857"
       sodipodi:rx="19.642857"
       sodipodi:cy="79.862183"
       sodipodi:cx="341.07144"
       id="path3759"
       style="fill:#ffffff;fill-opacity:1;stroke:#000000;stroke-width:3;stroke-miterlimit:4;stroke-dasharray:none"
       sodipodi:type="arc"
       transform="translate(193.57143,76.428574)" />
    <path
       transform="translate(291.42857,80.000004)"
       sodipodi:type="arc"
       style="fill:#000000;fill-opacity:1;stroke:#000000;stroke-width:3;stroke-miterlimit:4;stroke-dasharray:none"
       id="path3761"
       sodipodi:cx="341.07144"
       sodipodi:cy="79.862183"
       sodipodi:rx="19.642857"
       sodipodi:ry="19.642857"
       d="m 360.7143,79.862183 c 0,10.84845 -8.79441,19.642856 -19.64286,19.642856 -10.84845,0 -19.64285,-8.794406 -19.64285,-19.642856 0,-10.848451 8.7944,-19.642857 19.64285,-19.642857 10.84845,0 19.64286,8.794406 19.64286,19.642857 z" />
    <path
       d="m 360.7143,79.862183 c 0,10.84845 -8.79441,19.642856 -19.64286,19.642856 -10.84845,0 -19.64285,-8.794406 -19.64285,-19.642856 0,-10.848451 8.7944,-19.642857 19.64285,-19.642857 10.84845,0 19.64286,8.794406 19.64286,19.642857 z"
       sodipodi:ry="19.642857"
       sodipodi:rx="19.642857"
       sodipodi:cy="79.862183"
       sodipodi:cx="341.07144"
       id="path3763"
       style="fill:#ffffff;fill-opacity:1;stroke:#000000;stroke-width:3;stroke-miterlimit:4;stroke-dasharray:none"
       sodipodi:type="arc"
       transform="translate(242.14285,162.85715)" />
    <path
       transform="translate(342.14285,161.14286)"
       sodipodi:type="arc"
       style="fill:#000000;fill-opacity:1;stroke:#000000;stroke-width:3;stroke-miterlimit:4;stroke-dasharray:none"
       id="path3765"
       sodipodi:cx="341.07144"
       sodipodi:cy="79.862183"
       sodipodi:rx="19.642857"
       sodipodi:ry="19.642857"
       d="m 360.7143,79.862183 c 0,10.84845 -8.79441,19.642856 -19.64286,19.642856 -10.84845,0 -19.64285,-8.794406 -19.64285,-19.642856 0,-10.848451 8.7944,-19.642857 19.64285,-19.642857 10.84845,0 19.64286,8.794406 19.64286,19.642857 z" />
    <path
       d="m 360.7143,79.862183 c 0,10.84845 -8.79441,19.642856 -19.64286,19.642856 -10.84845,0 -19.64285,-8.794406 -19.64285,-19.642856 0,-10.848451 8.7944,-19.642857 19.64285,-19.642857 10.84845,0 19.64286,8.794406 19.64286,19.642857 z"
       sodipodi:ry="19.642857"
       sodipodi:rx="19.642857"
       sodipodi:cy="79.862183"
       sodipodi:cx="341.07144"
       id="path3767"
       style="fill:#ffffff;fill-opacity:1;stroke:#000000;stroke-width:3;stroke-miterlimit:4;stroke-dasharray:none"
       sodipodi:type="arc"
       transform="translate(394.99999,250.00001)" />
    <text
       xml:space="preserve"
       style="font-size:40px;font-style:normal;font-weight:normal;line-height:125%;letter-spacing:0px;word-spacing:0px;fill:#000000;fill-opacity:1;stroke:none;font-family:Sans"
       x="527.12335"
       y="164.3098"
       id="text3783"
       sodipodi:linespacing="125%"><tspan
         sodipodi:role="line"
         id="tspan3785"
         x="527.12335"
         y="164.3098"
         style="font-size:22px">A</tspan></text>
    <text
       sodipodi:linespacing="125%"
       id="text3787"
       y="250.73839"
       x="575.36713"
       style="font-size:40px;font-style:normal;font-weight:normal;line-height:125%;letter-spacing:0px;word-spacing:0px;fill:#000000;fill-opacity:1;stroke:none;font-family:Sans"
       xml:space="preserve"><tspan
         style="font-size:22px"
         y="250.73839"
         x="575.36713"
         id="tspan3789"
         sodipodi:role="line">B</tspan></text>
    <text
       xml:space="preserve"
       style="font-size:40px;font-style:normal;font-weight:normal;line-height:125%;letter-spacing:0px;word-spacing:0px;fill:#000000;fill-opacity:1;stroke:none;font-family:Sans"
       x="728.36926"
       y="337.87048"
       id="text3791"
       sodipodi:linespacing="125%"><tspan
         sodipodi:role="line"
         id="tspan3793"
         x="728.36926"
         y="337.87048"
         style="font-size:22px">C</tspan></text>
  </g>
</svg>
