<?xml version="1.0" encoding="UTF-8" standalone="no"?>
<!-- Created with Inkscape (http://www.inkscape.org/) -->

<svg
   xmlns:dc="http://purl.org/dc/elements/1.1/"
   xmlns:cc="http://creativecommons.org/ns#"
   xmlns:rdf="http://www.w3.org/1999/02/22-rdf-syntax-ns#"
   xmlns:svg="http://www.w3.org/2000/svg"
   xmlns="http://www.w3.org/2000/svg"
   xmlns:sodipodi="http://sodipodi.sourceforge.net/DTD/sodipodi-0.dtd"
   xmlns:inkscape="http://www.inkscape.org/namespaces/inkscape"
   width="392.4375"
   height="766.90625"
   id="svg3134"
   version="1.1"
   inkscape:version="0.48.4 r9939"
   sodipodi:docname="mobile_frame.svg"
   inkscape:export-filename="/home/aiden/Desktop/mobile_frame.png"
   inkscape:export-xdpi="90"
   inkscape:export-ydpi="90">
  <defs
     id="defs3136" />
  <sodipodi:namedview
     id="base"
     pagecolor="#ffffff"
     bordercolor="#666666"
     borderopacity="1.0"
     inkscape:pageopacity="0.0"
     inkscape:pageshadow="2"
     inkscape:zoom="1.4"
     inkscape:cx="140.50591"
     inkscape:cy="379.3446"
     inkscape:document-units="px"
     inkscape:current-layer="layer1"
     showgrid="false"
     inkscape:window-width="1855"
     inkscape:window-height="1056"
     inkscape:window-x="1505"
     inkscape:window-y="24"
     inkscape:window-maximized="1"
     fit-margin-top="0"
     fit-margin-left="0"
     fit-margin-right="0"
     fit-margin-bottom="0" />
  <metadata
     id="metadata3139">
    <rdf:RDF>
      <cc:Work
         rdf:about="">
        <dc:format>image/svg+xml</dc:format>
        <dc:type
           rdf:resource="http://purl.org/dc/dcmitype/StillImage" />
        <dc:title />
      </cc:Work>
    </rdf:RDF>
  </metadata>
  <g
     inkscape:label="Layer 1"
     inkscape:groupmode="layer"
     id="layer1"
     transform="translate(-83.78125,-106.0625)">
    <path
       style="fill:#231f20"
       d="m 277.4375,106.0625 c -13.769,0 -26.1995,0.374 -41.9375,0.875 l -7.6875,0.25 c -30.292,0.945 -91.2905,10.7605 -100.6875,13.6875 -15.497,4.827 -23.5805,10.751 -30.9375,22.625 -6.648,10.728 -7.996,29.181 -8.5,36.125 -0.055,0.748 -0.084,1.3595 -0.125,1.8125 -1.323,14.792 -1.59,45.20625 -1.625,51.15625 0,0 -0.36575,483.34025 -0.21875,493.40625 0.038,2.578 0.0505,4.74975 0.0625,6.71875 l 0,0.6875 c 0.054,9.696 0.0755,15.54525 2.5625,48.65625 2.718,36.187 9.71275,50.87625 19.34375,61.78125 8.688,9.842 20.211,15.70925 37.375,19.03125 1.895,0.368 3.66725,0.7155 5.40625,1.0625 13.234,2.641 23.70425,4.73725 60.15625,6.65625 3.694,0.193 7.25325,0.3645 10.78125,0.5625 16.6,0.921 32.29625,1.8125 53.28125,1.8125 14.896,0 31.34975,-0.43775 50.34375,-1.34375 66.147,-3.153 98.8965,-6.933 118.0625,-20.875 18.6,-13.532 22.92825,-33.75725 25.78125,-47.15625 l 0.0937,-0.5625 c 3.372,-15.818 3.46875,-51.624 3.46875,-62.375 l 0,-538.15625 c -0.329,-24.343 -2.3965,-48.89575 -15.1875,-63.71875 -12.929,-14.986 -28.914,-18.397 -41.75,-21.125 -14.518,-3.083 -41.20475,-7.31125 -85.96875,-9.90625 -20.475,-1.186 -36.54075,-1.6875 -52.09375,-1.6875 z m -159.5,80.9375 323,0 0,536.34375 -323,0 0,-536.34375 z"
       id="path38"
       inkscape:connector-curvature="0" />
    <path
       id="path40"
       d="m 474.7325,771.18354 -0.281,1.875 c -0.072,0.478 -0.702,4.665 -1.37,8.28 -1.277,6.9 -3.504,16.453 -6.858,22.775 -3.762,7.088 -7.314,13.785 -25.246,24.332 -13.561,7.974 -44.078,14.006 -53.068,15.188 -10.188,1.34 -47.461,4.192 -65.38,5.005 -16.789,0.761 -25.233,0.992 -36.14,0.992 l -3.567,-0.01 -3.641,0.01 c -18.312,0 -31.146,-0.512 -41.738,-0.991 -17.919,-0.812 -55.19,-3.665 -65.378,-5.005 -8.989,-1.181 -39.506,-7.211 -53.066,-15.188 -17.932,-10.547 -21.485,-17.241 -25.249,-24.331 -3.354,-6.324 -5.581,-15.876 -6.858,-22.776 -0.679,-3.678 -1.283,-7.586 -1.335,-7.917 l -0.29,-1.878"
       inkscape:connector-curvature="0"
       style="fill:none;stroke:#ffffff;stroke-width:3" />
    <g
       id="g42"
       transform="translate(-166.2145,-150.92846)">
      <path
         id="path44"
         d="m 431.933,269.931 c 10.201,0 27.874,0.14 36.709,0.24 7.614,0.088 18.293,0.725 26.884,1.236 l 0.5,0.028 c 2.512,0.15 4.87,0.29 6.96,0.405 8.472,0.461 16.266,0.935 18.556,1.641 1.722,0.531 1.806,1.179 1.945,2.255 l 0.032,0.244 c 0.188,1.366 -0.313,2.429 -1.491,3.162 -0.987,0.615 -1.323,0.715 -2.397,0.715 -0.333,0 -0.727,-0.009 -1.237,-0.024 l -1.704,-0.035 c -3.76,-0.057 -11.223,-0.741 -18.543,-1.436 -6.699,-0.639 -23.176,-1.326 -32.005,-1.557 -8.845,-0.23 -26.277,-0.23 -32.84,-0.23 -4.927,0 -12.207,0.246 -18.626,0.462 l -0.784,0.026 -0.321,0.011 c -2.095,0.07 -4.106,0.138 -5.936,0.191 -5.415,0.16 -11.042,0.538 -16.006,0.872 l -0.072,0.005 -0.324,0.023 -0.772,0.051 c -1.764,0.118 -3.423,0.229 -4.936,0.315 -1.136,0.066 -2.321,0.142 -3.51,0.219 l -0.379,0.025 c -3.293,0.214 -6.697,0.435 -9.014,0.435 -1.104,0 -1.898,-0.05 -2.367,-0.149 -0.919,-0.193 -1.602,-0.633 -2.027,-1.306 -0.586,-0.927 -0.539,-2.034 -0.419,-2.538 0.204,-0.858 1.296,-2.674 2.896,-2.985 1.384,-0.269 5.948,-0.476 11.28,-0.719 l 4.125,-0.19 c 7.029,-0.332 32.182,-1.323 41.398,-1.381 1.259,-0.007 2.755,-0.011 4.425,-0.011 m 0,-3 c -1.676,0 -3.177,0.004 -4.441,0.01 -9.305,0.059 -34.499,1.052 -41.524,1.384 l -4.121,0.19 c -5.869,0.267 -10.109,0.459 -11.714,0.771 -3.053,0.592 -4.836,3.524 -5.243,5.234 -0.297,1.254 -0.244,3.182 0.802,4.836 0.862,1.364 2.226,2.277 3.945,2.639 0.689,0.146 1.637,0.213 2.984,0.213 2.419,0 5.883,-0.225 9.232,-0.442 l 0.357,-0.023 c 1.181,-0.077 2.358,-0.152 3.487,-0.218 1.737,-0.099 3.67,-0.23 5.734,-0.368 l 0.334,-0.023 c 4.957,-0.333 10.576,-0.712 15.957,-0.871 1.926,-0.056 4.055,-0.128 6.27,-0.202 l 0.783,-0.026 c 6.406,-0.216 13.667,-0.461 18.527,-0.461 6.552,0 23.956,0 32.762,0.229 8.775,0.229 25.146,0.91 31.798,1.544 7.388,0.702 14.923,1.391 18.782,1.449 l 1.687,0.035 c 0.518,0.016 0.941,0.025 1.299,0.025 1.634,0 2.527,-0.262 3.983,-1.168 2.177,-1.354 3.226,-3.59 2.878,-6.117 l -0.029,-0.222 c -0.164,-1.271 -0.47,-3.635 -4.035,-4.735 -2.387,-0.736 -8.365,-1.175 -19.277,-1.77 -2.084,-0.115 -4.438,-0.254 -6.944,-0.404 l -0.511,-0.029 c -8.629,-0.514 -19.367,-1.152 -27.018,-1.241 -8.773,-0.099 -26.424,-0.239 -36.744,-0.239 l 0,0 z"
         inkscape:connector-curvature="0"
         style="fill:#ffffff" />
    </g>
    <path
       id="path46"
       d="m 279.4285,837.02354 c -11.699,0 -21.22,-9.546 -21.22,-21.277 0,-11.733 9.521,-21.277 21.22,-21.277 11.702,0 21.221,9.544 21.221,21.277 0,11.731 -9.52,21.277 -21.221,21.277"
       inkscape:connector-curvature="0"
       style="fill:none;stroke:#ffffff;stroke-width:3" />
    <path
       style="fill:#231f20;fill-opacity:1"
       inkscape:connector-curvature="0"
       d="m 442.4295,185.50254 -3,0 -320,0 -3,0 0,3 0,533.333 0,3 3,0 320,0 3,0 0,-3 0,-533.333 0,-3 z"
       id="path52"
       sodipodi:nodetypes="cccccccccccccc" />
    <g
       id="g54"
       transform="translate(-166.2145,-150.92846)">
      <path
         id="path56"
         d="m 444.618,286.874 c 20.732,0 40.963,0.717 61.852,2.192 16.037,1.132 22.539,1.707 44.874,4.361 22.964,2.73 37.234,5.458 46.272,8.844 9.02,3.375 18.215,7.517 22.892,17.642 4.664,10.098 5.272,24.739 5.52,40.12 0.141,8.725 0.492,57.03 0.776,95.845 l 0.017,2.385 c 0.173,23.873 0.312,42.728 0.355,46.401 0.117,10.022 0.228,207.919 0.228,216.126 0,4.869 0.025,31.566 0.052,59.639 l 0.023,24.958 c 0.021,23.082 0.039,42.723 0.039,46.233 l 0.01,3.779 c 0.042,11.215 0.119,32.094 -1.44,38.838 -1.78,7.698 -8.244,17.708 -21.044,22.719 -9.945,3.891 -26.667,7.543 -48.354,10.562 -11.728,1.626 -51.374,5.173 -72.876,6.077 -10.138,0.424 -24.322,0.659 -39.936,0.659 -14.254,0 -27.824,-0.205 -36.3,-0.544 -16.596,-0.67 -49.325,-3.385 -61.491,-4.595 -11.772,-1.168 -32.573,-4.617 -37.803,-5.818 l -2.013,-0.453 c -5.668,-1.266 -15.158,-3.381 -21.724,-6.917 -7.469,-4.026 -9.602,-5.683 -15.219,-14.077 -4.7,-7.022 -4.478,-21.854 -4.344,-30.715 l 0.003,-0.195 c 0.02,-1.274 0.038,-2.434 0.038,-3.438 0,-8.102 -0.566,-120.259 -0.689,-136.374 -0.113,-14.793 -0.229,-94.735 -0.229,-104.809 0,-2.889 -0.045,-15.856 -0.105,-32.624 -0.126,-36.406 -0.318,-102.758 -0.238,-110.091 0.037,-3.612 0.074,-16.622 0.123,-33.202 l 0.004,-1.245 c 0.094,-32.277 0.221,-76.484 0.446,-87.159 0.034,-1.649 0.062,-3.271 0.087,-4.868 0.227,-13.962 0.424,-26.02 5.927,-39.261 5.95,-14.316 25.854,-19.852 53.91,-23.758 26.5,-3.691 67.831,-6.483 105.295,-7.112 5.002,-0.082 10.069,-0.125 15.062,-0.125 m 0,-3 c -5.001,0 -10.086,0.043 -15.113,0.128 -37.576,0.63 -79.049,3.433 -105.659,7.14 -29.075,4.048 -49.77,9.947 -56.267,25.578 -5.725,13.776 -5.925,26.097 -6.156,40.364 -0.026,1.593 -0.053,3.209 -0.087,4.854 -0.225,10.652 -0.353,54.645 -0.446,86.768 l -10e-4,0.445 -0.004,1.244 -0.002,0.76 c -0.047,16.132 -0.084,28.875 -0.121,32.421 -0.083,7.611 0.125,77.486 0.238,110.132 0.058,16.105 0.105,29.675 0.105,32.613 0,10.084 0.116,90.068 0.229,104.832 0.123,16.079 0.689,128.219 0.689,136.351 0,0.979 -0.018,2.108 -0.037,3.347 l -0.003,0.242 c -0.139,9.21 -0.372,24.627 4.85,32.428 5.956,8.901 8.404,10.799 16.288,15.049 6.922,3.727 16.654,5.9 22.468,7.198 l 2.034,0.458 c 5.271,1.21 26.278,4.697 38.166,5.876 12.167,1.209 44.961,3.932 61.666,4.607 8.541,0.342 22.156,0.547 36.421,0.547 15.646,0 29.873,-0.235 40.062,-0.661 21.574,-0.907 61.38,-4.469 73.163,-6.103 21.919,-3.052 38.875,-6.766 49.035,-10.74 13.888,-5.436 20.922,-16.394 22.875,-24.837 1.511,-6.537 1.575,-23.83 1.517,-39.525 l -0.01,-3.776 c 0,-2.751 -0.012,-15.48 -0.026,-32.014 l -0.013,-14.213 -0.023,-24.959 c -0.027,-28.071 -0.052,-54.768 -0.052,-59.636 0,-8.711 -0.111,-206.141 -0.228,-216.162 -0.044,-3.633 -0.181,-22.327 -0.355,-46.388 l -0.017,-2.384 -0.021,-2.963 c -0.275,-37.599 -0.618,-84.392 -0.755,-92.91 -0.252,-15.714 -0.886,-30.699 -5.795,-41.329 -5.154,-11.158 -15.382,-15.758 -24.564,-19.194 -9.274,-3.474 -23.76,-6.253 -46.969,-9.013 -22.378,-2.659 -28.904,-3.237 -45.017,-4.375 -20.963,-1.481 -41.264,-2.2 -62.065,-2.2 l 0,0 z"
         inkscape:connector-curvature="0"
         style="fill:#ffffff" />
    </g>
    <path
       id="path60"
       d="m 152.5285,740.26254 c 0,0 -6.818,6.286 -7.376,6.774 -0.555,0.492 -0.138,1.467 0.559,1.882 0.695,0.415 6.891,6.876 6.891,6.876 l 3.062,-0.148 -6.334,-6.39 c 0,0 6.82,-0.09 9.604,0.11 2.783,0.202 5.082,1.66 6.682,2.839 1.602,1.18 3.478,3.475 3.478,3.475 l 2.926,-0.009 c 0,0 -1.812,-3.269 -5.638,-6.114 -3.83,-2.847 -6.822,-2.628 -8.912,-2.763 -2.086,-0.134 -8.349,-0.048 -8.349,-0.048 l 6.471,-6.495 -3.064,0.011 z"
       clip-rule="evenodd"
       inkscape:connector-curvature="0"
       style="fill:#ffffff;fill-rule:evenodd" />
    <rect
       id="rect62"
       height="2.441"
       width="26.007"
       clip-rule="evenodd"
       y="737.55054"
       x="226.14149"
       style="fill:#ffffff;fill-rule:evenodd" />
    <rect
       id="rect64"
       height="2.7609999"
       width="19.054001"
       clip-rule="evenodd"
       y="744.10352"
       x="233.0955"
       style="fill:#ffffff;fill-rule:evenodd" />
    <rect
       id="rect66"
       height="2.8599999"
       width="19.054001"
       clip-rule="evenodd"
       y="750.17053"
       x="233.0955"
       style="fill:#ffffff;fill-rule:evenodd" />
    <rect
       id="rect68"
       height="2.648"
       width="19.054001"
       clip-rule="evenodd"
       y="756.58551"
       x="233.0955"
       style="fill:#ffffff;fill-rule:evenodd" />
    <polygon
       id="polygon70"
       points="487.511,887.038 473.048,901.12 474.717,902.724 487.722,889.967 500.443,902.583 502.182,901.191 496.55,895.754 496.55,888.922 494.326,888.922 494.326,893.453 "
       clip-rule="evenodd"
       style="fill:#ffffff;fill-rule:evenodd"
       transform="translate(-166.2145,-150.92846)" />
    <polygon
       id="polygon72"
       points="478.68,911.23 496.412,911.23 496.412,904.12 494.255,902.305 494.255,909.209 480.973,909.209 480.973,902.516 478.68,904.12 "
       clip-rule="evenodd"
       style="fill:#ffffff;fill-rule:evenodd"
       transform="translate(-166.2145,-150.92846)" />
    <path
       id="path74"
       d="m 405.3005,750.31154 2.348,2.962 v 1.463 c 0,0 3.686,4.25 5.074,5.368 1.393,1.114 1.738,0.626 2.227,0.138 0.488,-0.488 0.763,-1.951 0.138,-2.65 -0.626,-0.697 -4.938,-5.576 -4.938,-5.576 l -1.249,0.067 -1.637,-2.091"
       clip-rule="evenodd"
       inkscape:connector-curvature="0"
       style="fill:#ffffff;fill-rule:evenodd" />
    <g
       id="g76"
       transform="translate(-166.2145,-150.92846)">
      <path
         id="path78"
         d="m 566.586,888.603 c 3.648,0 6.616,2.968 6.616,6.616 0,3.648 -2.968,6.616 -6.616,6.616 -3.648,0 -6.616,-2.968 -6.616,-6.616 0,-3.648 2.968,-6.616 6.616,-6.616 m 0,-3 c -5.311,0 -9.616,4.305 -9.616,9.616 0,5.311 4.305,9.616 9.616,9.616 5.311,0 9.616,-4.305 9.616,-9.616 0,-5.311 -4.305,-9.616 -9.616,-9.616 l 0,0 z"
         inkscape:connector-curvature="0"
         style="fill:#ffffff" />
    </g>
  </g>
</svg>
