<?xml version="1.0" encoding="UTF-8" standalone="no"?>
<!-- Generator: Adobe Illustrator 15.0.2, SVG Export Plug-In . SVG Version: 6.00 Build 0)  -->

<svg
   xmlns:dc="http://purl.org/dc/elements/1.1/"
   xmlns:cc="http://creativecommons.org/ns#"
   xmlns:rdf="http://www.w3.org/1999/02/22-rdf-syntax-ns#"
   xmlns:svg="http://www.w3.org/2000/svg"
   xmlns="http://www.w3.org/2000/svg"
   xmlns:sodipodi="http://sodipodi.sourceforge.net/DTD/sodipodi-0.dtd"
   xmlns:inkscape="http://www.inkscape.org/namespaces/inkscape"
   version="1.0"
   id="Layer_1"
   x="0px"
   y="0px"
   width="1431.766"
   height="951.77802"
   viewBox="0 0 1431.766 951.77803"
   enable-background="new 0 0 2557.27 2565.22"
   xml:space="preserve"
   inkscape:version="0.48.4 r9939"
   sodipodi:docname="tablet_frame.svg"><metadata
     id="metadata103"><rdf:RDF><cc:Work
         rdf:about=""><dc:format>image/svg+xml</dc:format><dc:type
           rdf:resource="http://purl.org/dc/dcmitype/StillImage" /><dc:title /></cc:Work></rdf:RDF></metadata><defs
     id="defs101" /><sodipodi:namedview
     pagecolor="#ffffff"
     bordercolor="#666666"
     borderopacity="1"
     objecttolerance="10"
     gridtolerance="10"
     guidetolerance="10"
     inkscape:pageopacity="0"
     inkscape:pageshadow="2"
     inkscape:window-width="1855"
     inkscape:window-height="1056"
     id="namedview99"
     showgrid="false"
     inkscape:zoom="0.36799963"
     inkscape:cx="2235.9603"
     inkscape:cy="972.58844"
     inkscape:window-x="1505"
     inkscape:window-y="24"
     inkscape:window-maximized="1"
     inkscape:current-layer="Layer_1"
     fit-margin-top="0"
     fit-margin-left="0"
     fit-margin-right="0"
     fit-margin-bottom="0" /><path
     style="fill:#231f20"
     d="M 75.90625 0 C 34.056251 9.4739031e-15 -7.8625833e-15 34.055251 0 75.90625 L 0 875.875 C 9.4739031e-15 917.725 34.055251 951.78125 75.90625 951.78125 L 1355.875 951.78125 C 1397.726 951.78125 1431.7812 917.726 1431.7812 875.875 L 1431.7812 75.90625 C 1431.7812 34.056251 1397.726 0 1355.875 0 L 75.90625 0 z M 74.375 74.375 L 1357.375 74.375 L 1357.375 877.375 L 74.375 877.375 L 74.375 74.375 z "
     id="path4"
     transform="translate(-6.7849351e-6,0)" /><g
     id="g6"
     transform="translate(-875.50302,-250.001)"><path
       style="fill:#ffffff"
       inkscape:connector-curvature="0"
       id="path8"
       d="m 2231.371,269.185 c 31.273,0 56.715,25.442 56.715,56.715 v 799.981 c 0,31.272 -25.441,56.715 -56.715,56.715 H 951.401 c -31.272,0 -56.715,-25.442 -56.715,-56.715 V 325.899 c 0,-31.272 25.442,-56.715 56.715,-56.715 h 1279.97 m 0,-2.999 H 951.401 c -32.927,0 -59.715,26.788 -59.715,59.715 v 799.981 c 0,32.927 26.788,59.715 59.715,59.715 h 1279.97 c 32.927,0 59.715,-26.788 59.715,-59.715 V 325.899 c 0,-32.926 -26.788,-59.714 -59.715,-59.714 l 0,0 z" /></g><path
     style="fill:none;stroke:#ffffff;stroke-width:3"
     inkscape:connector-curvature="0"
     id="path16"
     d="m 715.88298,60.612 c -8.276,0 -15.011,-6.75 -15.011,-15.047 0,-8.296 6.734,-15.047 15.011,-15.047 8.277,0 15.012,6.751 15.012,15.047 -10e-4,8.296 -6.735,15.047 -15.012,15.047 z" /><path
     d="m 1358.883,72.889 -3,0 -1280.00001,0 -3,0 0,3 0,800 0,3 3,0 1280.00001,0 3,0 0,-3 0,-800 0,-3 z"
     id="path14"
     inkscape:connector-curvature="0"
     style="fill:#231f20;fill-opacity:1"
     sodipodi:nodetypes="cccccccccccccc" /></svg>