<?xml version="1.0" standalone="no"?>
<!DOCTYPE svg PUBLIC "-//W3C//DTD SVG 20010904//EN"
 "http://www.w3.org/TR/2001/REC-SVG-20010904/DTD/svg10.dtd">
<svg version="1.0" xmlns="http://www.w3.org/2000/svg"
 width="700.000000pt" height="700.000000pt" viewBox="0 0 700.000000 700.000000"
 preserveAspectRatio="xMidYMid meet">
<metadata>
Created by potrace 1.11, written by Peter Selinger 2001-2013
</metadata>
<g transform="translate(0.000000,700.000000) scale(0.100000,-0.100000)"
fill="#000000" stroke="none">
<path d="M1430 5399 c-206 -19 -372 -80 -450 -165 -118 -129 -150 -318 -150
-911 0 -311 -9 -392 -56 -488 -64 -131 -193 -184 -441 -185 l-123 0 0 -144 0
-143 133 -6 c208 -8 312 -40 382 -118 87 -96 105 -194 105 -561 0 -354 13
-578 40 -683 40 -158 107 -253 221 -310 117 -60 336 -95 586 -95 l133 0 0 144
0 143 -157 6 c-302 12 -376 53 -419 232 -14 58 -18 149 -24 515 -6 408 -9 451
-28 522 -41 152 -105 233 -235 298 -43 22 -88 40 -98 40 -33 0 -29 18 5 24 62
12 171 74 219 125 56 59 82 110 109 209 19 70 22 116 29 527 8 506 14 554 79
644 45 65 185 100 393 101 l127 0 0 145 0 145 -147 -1 c-82 -1 -186 -5 -233
-10z"/>
<path d="M5190 5268 l0 -145 163 -6 c286 -10 365 -52 410 -221 17 -63 20 -123
27 -521 6 -412 9 -456 28 -527 27 -99 53 -150 109 -209 48 -51 157 -113 219
-125 34 -6 38 -24 5 -24 -10 0 -55 -18 -98 -40 -130 -65 -194 -146 -235 -298
-19 -70 -22 -116 -29 -527 -7 -443 -11 -492 -45 -580 -45 -117 -176 -165 -451
-165 l-103 0 0 -146 0 -147 193 6 c455 14 630 92 715 318 49 134 55 188 62
659 8 488 11 517 74 624 66 113 217 166 468 166 l88 0 0 145 0 145 -122 0
c-249 1 -386 58 -449 186 -48 100 -51 134 -59 604 -9 475 -13 518 -64 654 -83
220 -265 300 -713 313 l-193 6 0 -145z"/>
<path d="M3205 4565 c-125 -19 -244 -48 -391 -96 l-124 -40 0 -185 c0 -101 2
-184 5 -184 3 0 47 21 97 46 206 104 432 158 658 157 384 0 548 -136 567 -470
l6 -103 -339 0 c-452 0 -583 -20 -784 -117 -80 -39 -108 -59 -180 -132 -96
-96 -136 -166 -171 -298 -29 -107 -31 -317 -5 -418 65 -248 229 -414 483 -487
69 -20 99 -23 263 -22 205 0 279 14 405 74 110 53 240 172 312 286 9 15 12
-15 12 -148 l1 -168 186 0 185 0 -4 828 c-3 746 -5 834 -21 901 -27 113 -61
189 -119 266 -128 170 -330 279 -581 314 -103 15 -349 12 -461 -4z m812 -1292
c-12 -266 -77 -443 -212 -578 -117 -119 -260 -175 -439 -175 -215 0 -357 76
-429 228 -31 65 -32 72 -32 197 0 120 2 135 26 186 51 108 135 178 269 223
114 38 177 43 514 45 l309 1 -6 -127z"/>
</g>
</svg>
